<?xml version="1.0" encoding="UTF-8" standalone="no"?>
<svg
   viewBox="0 0 99.31 132.55"
   version="1.1"
   id="svg31"
   sodipodi:docname="farnost_VM.svg"
   inkscape:version="1.4 (86a8ad7, 2024-10-11)"
   xmlns:inkscape="http://www.inkscape.org/namespaces/inkscape"
   xmlns:sodipodi="http://sodipodi.sourceforge.net/DTD/sodipodi-0.dtd"
   xmlns="http://www.w3.org/2000/svg"
   xmlns:svg="http://www.w3.org/2000/svg">
  <sodipodi:namedview
     id="namedview31"
     pagecolor="#ffffff"
     bordercolor="#000000"
     borderopacity="0.25"
     inkscape:showpageshadow="2"
     inkscape:pageopacity="0.0"
     inkscape:pagecheckerboard="0"
     inkscape:deskcolor="#d1d1d1"
     inkscape:zoom="6.148623"
     inkscape:cx="49.604603"
     inkscape:cy="66.275002"
     inkscape:window-width="1920"
     inkscape:window-height="1017"
     inkscape:window-x="-8"
     inkscape:window-y="-8"
     inkscape:window-maximized="1"
     inkscape:current-layer="Vrstva_2" />
  <defs
     id="defs1">
    <style
       id="style1">.cls-1{fill:#fff;}.cls-2{fill:#c2963c;}</style>
  </defs>
  <title
     id="title1">logo</title>
  <g
     id="Vrstva_2"
     data-name="Vrstva 2">
    <g
       id="grafika"
       transform="matrix(2.6397073,0,0,2.6397195,-84.445638,-91.598267)">
      <path
         class="cls-2"
         d="M 50.77,34.7 A 15.38,15.38 0 0 0 35.4,50.08 V 84.69 H 49.93 V 71.33 H 45 v -1.68 h 5 v -5.19 h 1.68 v 5.18 h 5 v 1.68 h -5 V 84.69 H 66.15 V 50.08 A 15.38,15.38 0 0 0 50.77,34.7 Z M 47,59.41 A 3.21,3.21 0 1 1 50.21,56.2 3.21,3.21 0 0 1 47,59.41 Z m 0.52,-9.62 a 3.2,3.2 0 1 1 3.25,3.21 3.2,3.2 0 0 1 -3.2,-3.21 z m 6.93,9.62 a 3.21,3.21 0 1 1 3.2,-3.21 3.21,3.21 0 0 1 -3.15,3.21 z"
         id="path31" />
    </g>
  </g>
</svg>
