<?xml version="1.0" encoding="UTF-8" standalone="no"?>
<!-- Generator: Adobe Illustrator 20.1.0, SVG Export Plug-In . SVG Version: 6.00 Build 0)  -->

<svg
   version="1.1"
   id="artwork"
   x="0px"
   y="0px"
   viewBox="0 0 306.1 382.7"
   enable-background="new 0 0 306.1 382.7"
   xml:space="preserve"
   sodipodi:docname="SKAUT_logo_netext.svg"
   inkscape:version="1.4 (86a8ad7, 2024-10-11)"
   xmlns:inkscape="http://www.inkscape.org/namespaces/inkscape"
   xmlns:sodipodi="http://sodipodi.sourceforge.net/DTD/sodipodi-0.dtd"
   xmlns="http://www.w3.org/2000/svg"
   xmlns:svg="http://www.w3.org/2000/svg"><defs
   id="defs22" /><sodipodi:namedview
   id="namedview22"
   pagecolor="#ffffff"
   bordercolor="#000000"
   borderopacity="0.25"
   inkscape:showpageshadow="2"
   inkscape:pageopacity="0.0"
   inkscape:pagecheckerboard="0"
   inkscape:deskcolor="#d1d1d1"
   inkscape:zoom="2.1296054"
   inkscape:cx="153.08"
   inkscape:cy="191.35001"
   inkscape:window-width="1920"
   inkscape:window-height="1017"
   inkscape:window-x="-8"
   inkscape:window-y="-8"
   inkscape:window-maximized="1"
   inkscape:current-layer="g15" />
<g
   id="g22">
	
	<g
   id="g21">
		<g
   id="g16">
			<g
   id="g15">
				<g
   id="g1">
					<path
   fill="#0C0C0C"
   d="M149.9,63.4c-2.3,1.7-5.6,4.6-9.6,8.9c-5.9,6.2-11.5,14.9-12.4,19.1c-1.7,8.4-2.2,18.3,0.3,28.6       c0.6,2.6,2.3,3.9,4.4,3.9h41c2.1,0,3.8-1.3,4.4-3.9c2.5-10.3,2-20.2,0.3-28.6l0,0c-0.8-4.2-6.5-12.9-12.4-19.1       c-4-4.2-7.4-7.1-9.6-8.9C154.2,61.9,152.1,61.8,149.9,63.4z"
   id="path1" />
				</g>
				<g
   id="g2">
					<path
   fill="#0C0C0C"
   d="M96.1,122.6c-22.1,0-30.4,19.5-30.4,32.9c0,16.8,11.9,32.5,20.4,36.2c2.7,1.2,4.3,0.5,3.3-2.7       c-1.7-6-1.4-12.4,1.3-16.8c4.1-6.4,9-7.2,14.9-7.7c2.6-0.2,3.5-1,3.5-3.6v-12.5c0-3.9,0.5-4.7,2.8-7c0,0,7.5-7.5,9.4-9.4       c1.7-1.7,1-3-0.4-3.8C117.3,126,106,122.6,96.1,122.6z"
   id="path2" />
				</g>
				<g
   id="g3">
					<path
   fill="#0C0C0C"
   d="M185.1,128.3c-1.4,0.8-2.1,2.1-0.4,3.8c1.9,1.9,9.4,9.4,9.4,9.4c2.3,2.3,2.8,3.1,2.8,7V161       c0,2.6,1,3.4,3.5,3.6c5.9,0.5,10.7,1.2,14.9,7.7c2.8,4.3,3.1,10.8,1.3,16.8c-0.9,3.2,0.6,3.9,3.3,2.7       c8.5-3.7,20.4-19.4,20.4-36.2c0-13.4-8.3-32.9-30.4-32.9C200.1,122.6,188.8,126,185.1,128.3z"
   id="path3" />
				</g>
				<g
   id="g14">
					<g
   id="g4">
						<path
   fill="#0C0C0C"
   d="M173.8,151.8c-0.2-0.7-0.6-2.8-0.4-3.3c0.2-0.6,0.6-1.7,0.9-2.6c1.6-4.8,0.9-9.8,0.4-10.9        c-0.1-0.2-0.3-0.3-0.5-0.3c-2.3-0.4-4.2,1.1-6.6,3.9c-0.9,1.1-2,2-2.2,0.4c-0.2-1,0.6-3.1-0.3-3c-2.2,0.2-3.6,1.5-4.9,3.1        c-1,1.3-1,1.9-2.1,2c-2.2,0.1-3.2,0.2-5,0.6c-1.7,0.4-3.2,1-4.2,1.7c-1.3,0.8-2.2,2-5.3,2c-4.8,0-11,0.2-13.3,0.6        c-2.4,0.5-2.8,2-1.5,4.2c1.5,2.5,2,8,5.1,8.8c0.8,1.7,1.4,3.1,2.2,3c0.3-0.1,0.6-0.9,0.8-1.7c0.4-1.7,2.1-1.8,3.2-1.8        c2.8-0.1,4.9,0,6.7,1.1c1.3,0.7,1.9,2,1.7,2.5c-0.4,0.9-1.3-0.3-6.1,0.6c-2.7,0.5-4.3,2-7.7,2c-5.1,0-7.6-3.5-8.5-6.6        c-0.5-1.6-0.8-3-2.6-1.3c-2.3,2.2-2.5,6.4-0.1,8.9c1.6,1.7,3.9,2.6,6.6,2.8c0.8,0.1,2.5,0.1,3.9,0c0,0-0.4,1.1,0.2,2        c0.6,0.9,2.3,1.7,5.1,0.8c4-1.2,7.4-2.3,10.2-0.2c0.5,0.4,1.1,1.1,1.1,1.5c0,0.8-3,3.2-11.4,5.4c-10.3,2.8-12.8,9.7-11.7,13.5        c0.1,0.3,0.3,0.7,0.6,0.7s1.9-0.9,2.8-1.1c1.8-0.3,1,1,0.8,2.6c-0.8,5.7,7.4,13,14.6,18c4,2.8,6.1,3.7,7.1,3.7        s3.2-0.8,7.1-3.7c11.2-8.3,18.7-19.9,17.5-26.1c-0.7-3.5-2.5-5.7-1.6-6.2c1-0.6,3.2,1,3.7,0.7c1.1-0.7,1.6-7.2-0.4-14        C177.3,159.7,175.1,157.1,173.8,151.8z M152.6,149.6c-1,0.1-2.1-0.4-1.9-0.7c0.1-0.1,0.4-0.5,0.2-1c-0.3-0.6-1.3-0.7-1.9-0.2        c0.5-1.2,2.2-1.9,3.6-1.9c2,0,2.4,1.1,2.3,2C154.8,148.8,153.9,149.5,152.6,149.6z"
   id="path4" />
					</g>
					<g
   id="g5">
						<path
   fill="#0C0C0C"
   d="M88.6,216.4c-22,1.4-37.6-17.1-37.6-35.3c0-6.9,1-10.6,2.8-14.4c1.6-3.3,3.4-5.5,4.4-5.5        c1.1,0,1.4,1.5,1.5,2.5c4.3,22.3,20,35.2,30.7,35.4c3.1,0.1,7-0.7,7.3-2.2c0.5-2.2-3.3-6.8-3.3-15.6c0-3.5,1.6-10,11.3-10.3        c8.6-0.3,12.8,7.7,12.8,14.9C118.7,200.7,107.8,215.2,88.6,216.4z"
   id="path5" />
					</g>
					<g
   id="g8">
						<path
   fill="#0C0C0C"
   d="M59.8,148.3c1.8-13,9.1-22.7,17.2-27.3c13-7.4,25.9-4.6,34.9-2.6c1.3,0.3,2.4,0.1,2.8-0.7        c0.3-0.7,0.1-1.4-1-2.6c-4.2-4.5-14-14.2-15.2-15.2c-3-2.5-7.9-3.9-11.7-3.9c-22,0-35.8,16.7-35.8,35.3        c0,4.9,1.4,11.2,2.9,14.7c1.4,3.3,2.9,6.2,4.1,6.2C59.4,152.2,59.5,150.2,59.8,148.3z"
   id="path6" />
						<path
   fill="#0C0C0C"
   d="M186,112.4c-0.6-0.5-0.8-1.4-0.6-2.8c0.9-9.3,0-18.5-1.9-22.8c-2.4-5.5-8.1-13.6-12.6-18.3        c-5.8-6.1-7.9-7.8-10.6-9.8c-0.7-0.5-2.1-1.3-2.1-2c0-0.8,1.1-1.5,2.5-2.2c2.5-1.2,6.2-2.8,12.9-3.3c8-0.7,19.4,1,28.1,12.1        c4.9,6.2,5.5,13.7,5.5,18.8c0,6.1-1,11.5-3.9,14.7c-4.3,4.7-13.4,13.8-14.6,14.8C188.1,112.1,186.8,113,186,112.4z"
   id="path7" />
						<path
   fill="#0C0C0C"
   d="M120.1,112.4c0.6-0.5,0.8-1.4,0.6-2.8c-0.9-9.3,0-18.5,1.9-22.8c2.4-5.5,8.1-13.6,12.6-18.3        c5.8-6.1,7.9-7.8,10.6-9.8c0.7-0.5,2.1-1.3,2.1-2c0-0.8-1.1-1.5-2.5-2.2c-2.5-1.2-6.2-2.8-12.9-3.3c-8-0.7-19.4,1-28.1,12.1        C99.6,69.4,99,77,99,82.1c0,6.1,1,11.5,3.9,14.7c4.3,4.7,13.4,13.8,14.6,14.8C118,112.1,119.3,113,120.1,112.4z"
   id="path8" />
					</g>
					<g
   id="g12">
						<path
   fill="#0C0C0C"
   d="M217.5,216.4c22,1.4,37.6-17.1,37.6-35.3c0-6.9-1-10.6-2.8-14.4c-1.6-3.3-3.4-5.5-4.4-5.5        c-1.1,0-1.4,1.5-1.5,2.5c-4.3,22.3-20,35.2-30.7,35.4c-3.1,0.1-7-0.7-7.3-2.2c-0.5-2.2,3.3-6.8,3.3-15.6        c0-3.5-1.6-10-11.3-10.3c-8.6-0.3-12.8,7.7-12.8,14.9C187.4,200.7,198.3,215.2,217.5,216.4z"
   id="path9" />
						<path
   fill="#0C0C0C"
   d="M246.3,148.3c-1.8-13-9.1-22.7-17.2-27.3c-13-7.4-25.9-4.6-34.9-2.6c-1.3,0.3-2.4,0.1-2.8-0.7        c-0.3-0.7-0.1-1.4,1-2.6c4.2-4.5,14-14.2,15.2-15.2c3-2.5,7.9-3.9,11.7-3.9c22,0,35.8,16.7,35.8,35.3c0,4.9-1.4,11.2-2.9,14.7        c-1.4,3.3-2.9,6.2-4.1,6.2C246.7,152.2,246.6,150.2,246.3,148.3z"
   id="path10" />
						<path
   fill="#0C0C0C"
   d="M170.2,223.2c4.9-3.7,7.6-6.2,11.7-10.4c1.9-1.9,4.1-2.2,6.4,0c3.2,3.1,7.1,5.6,12.8,6        c2.3,0.2,3.5-0.5,5.1,0.2c0.8,0.4,1.6,1.5,1.7,3.4c0.2,7.5-3.4,16.3-14.3,18.2c-7.1,1.3-14.2-0.9-17.7-4.2        c-2.4-2.3-5.1-4.8-6.6-6.9C167.7,227.6,167.7,225.1,170.2,223.2z"
   id="path11" />
						<path
   fill="#0C0C0C"
   d="M135.9,223.2c-4.9-3.7-7.6-6.2-11.7-10.4c-1.9-1.9-4.1-2.2-6.4,0c-3.2,3.1-7.1,5.6-12.8,6        c-2.3,0.2-3.5-0.5-5.1,0.2c-0.8,0.4-1.6,1.5-1.7,3.4c-0.2,7.5,3.4,16.3,14.3,18.2c7.1,1.3,14.2-0.9,17.7-4.2        c2.4-2.3,5.1-4.8,6.6-6.9C138.5,227.6,138.4,225.1,135.9,223.2z"
   id="path12" />
					</g>
					<g
   id="g13">
						<path
   fill="#0C0C0C"
   d="M153.1,231.9c2.8,0,5-1.7,6.9-2c1.6-0.2,2.7,0.3,4.1,1.8c2.1,2.1,5.2,5.5,7.3,8        c1.5,1.8,3.5,4.8,0.7,11.9c-3.4,8.7-15.5,20.1-19.1,20.1s-15.7-11.4-19.1-20.1c-2.8-7.1-0.7-10.1,0.7-11.9        c2-2.5,5.1-5.9,7.3-8c1.5-1.5,2.5-2,4.1-1.8C148,230.2,150.3,231.9,153.1,231.9z"
   id="path13" />
					</g>
				</g>
			</g>
		</g>
		
	</g>
</g>
</svg>
